<?xml version="1.0" standalone="no"?><!DOCTYPE svg PUBLIC "-//W3C//DTD SVG 1.1//EN" "http://www.w3.org/Graphics/SVG/1.1/DTD/svg11.dtd"><svg t="1546422229649" class="icon" style="" viewBox="0 0 1024 1024" version="1.1" xmlns="http://www.w3.org/2000/svg" p-id="3732" xmlns:xlink="http://www.w3.org/1999/xlink" width="200" height="200"><defs><style type="text/css"></style></defs><path d="M914 864.7h-34.2V526.2c0-11.6-9.4-21-21-21h-49.9v-11.3c0-4.4-3.6-8-8-8h-57.1c-4.4 0-8 3.6-8 8v11.3H690v-246c0-11.6-9.4-21-21-21h-80.1v-35.4c0-11.6-9.4-21-21-21H525v-35.5c0-7.2-5.8-13-13-13s-13 5.8-13 13v35.5h-42.9c-11.6 0-21 9.4-21 21v35.4H355c-11.6 0-21 9.4-21 21v246h-45.8v-11.3c0-4.4-3.6-8-8-8h-57.1c-4.4 0-8 3.6-8 8v11.3h-49.9c-11.6 0-21 9.4-21 21v338.5H110c-7.2 0-13 5.8-13 13s5.8 13 13 13h804c7.2 0 13-5.8 13-13s-5.8-13-13-13zM461.1 207.8h101.7v28.7H461.1v-28.7z m229.7 323.4h163v332h-163v-332zM360 264.2h304v599H360v-599z m-189.8 267h163v332h-163v-332z" fill="" p-id="3733"></path><path d="M470.1 354h-44c-7.2 0-13 5.8-13 13s5.8 13 13 13h44c7.2 0 13-5.8 13-13s-5.8-13-13-13zM598.1 354h-44c-7.2 0-13 5.8-13 13s5.8 13 13 13h44c7.2 0 13-5.8 13-13s-5.8-13-13-13zM470.1 481h-44c-7.2 0-13 5.8-13 13s5.8 13 13 13h44c7.2 0 13-5.8 13-13s-5.8-13-13-13zM598.1 481h-44c-7.2 0-13 5.8-13 13s5.8 13 13 13h44c7.2 0 13-5.8 13-13s-5.8-13-13-13zM470.1 610h-44c-7.2 0-13 5.8-13 13s5.8 13 13 13h44c7.2 0 13-5.8 13-13s-5.8-13-13-13zM598.1 610h-44c-7.2 0-13 5.8-13 13s5.8 13 13 13h44c7.2 0 13-5.8 13-13s-5.8-13-13-13zM470.1 737h-44c-7.2 0-13 5.8-13 13s5.8 13 13 13h44c7.2 0 13-5.8 13-13s-5.8-13-13-13zM598.1 737h-44c-7.2 0-13 5.8-13 13s5.8 13 13 13h44c7.2 0 13-5.8 13-13s-5.8-13-13-13zM794.3 610h-44c-7.2 0-13 5.8-13 13s5.8 13 13 13h44c7.2 0 13-5.8 13-13s-5.8-13-13-13zM794.3 737h-44c-7.2 0-13 5.8-13 13s5.8 13 13 13h44c7.2 0 13-5.8 13-13s-5.8-13-13-13zM273.7 610h-44c-7.2 0-13 5.8-13 13s5.8 13 13 13h44c7.2 0 13-5.8 13-13s-5.8-13-13-13zM273.7 737h-44c-7.2 0-13 5.8-13 13s5.8 13 13 13h44c7.2 0 13-5.8 13-13s-5.8-13-13-13z" fill="" p-id="3734"></path></svg>