<?xml version="1.0" standalone="no"?><!DOCTYPE svg PUBLIC "-//W3C//DTD SVG 1.1//EN" "http://www.w3.org/Graphics/SVG/1.1/DTD/svg11.dtd"><svg t="1522658232490" class="icon" style="" viewBox="0 0 1024 1024" version="1.1" xmlns="http://www.w3.org/2000/svg" p-id="15331" xmlns:xlink="http://www.w3.org/1999/xlink" width="200" height="200"><defs><style type="text/css">@font-face { font-family: uc-nexus-iconfont; src: url("chrome-extension://pogijhnlcfmcppgimcaccdkmbedjkmhi/res/font_9qmmi8b8jsxxbt9.woff") format("woff"), url("chrome-extension://pogijhnlcfmcppgimcaccdkmbedjkmhi/res/font_9qmmi8b8jsxxbt9.ttf") format("truetype"); }
</style></defs><path d="M435.184 131.189c239.484 0 394.614 62.613 394.614 100.854l1.572 116.89c7.356 1.279 155.303 44.51 155.303 82.751l1.987 147.877c0 39.543-51.325 69.645-134.245 86.419-9.101 1.817-18.641 3.588-28.555 5.215l1.353 99.747c0 39.593-51.326 69.695-134.299 86.418-67.633 13.671-160.103 22.133-261.321 22.133-101.223 0-193.693-8.462-261.345-22.133-82.954-16.723-134.276-46.823-134.276-86.418l-0.001-147.846c0-31.088 49.948-53.37 74.467-62.42 17.289-6.341 37.258-11.803 59.514-16.327 8.755-1.771 17.926-3.443 27.467-5.019v-68.786c-7.771-1.326-15.318-2.73-22.599-4.205-82.925-16.722-134.25-46.896-134.25-86.442v-147.854c-0.002-31.085 165.829-100.854 394.612-100.854v0zM322.822 664.112c-55.506-12.199-95.666-30.645-114.109-54.103-8.609 1.424-85.043 21.937-85.855 24.347 13.060 2.854 132.608 34.979 199.964 29.758v0zM130.58 721.806v54.399c11.755 2.46 27.715 5.756 47.021 9.638v-52.826c-2.458-0.438-34.796-7.574-47.021-11.213v0zM705.312 728.889v52.97c27.049-5.557 44.583-9.295 48.962-10.523-0.59-2.559-0.932-5.264-0.932-8.018v-48.202c-14.243 5.115-30.349 9.738-48.030 13.773v0zM658.857 790.959v-53.266c-18.374 2.898-38.073 5.457-58.928 7.673v53.758c21.153-2.361 40.877-5.066 58.928-8.163v0zM553.499 803.303v-53.855c-26.143 1.87-53.587 3.148-81.891 3.838v53.906c28.553-0.641 55.971-1.97 81.891-3.889v0zM345.644 751.613v53.906c25.452 1.278 52.060 2.017 79.484 2.114v-53.955c-27.249-0.099-53.857-0.788-79.484-2.065v0zM299.189 802.518v-53.857c-26.587-2.067-51.794-4.82-75.131-8.018v53.465c22.967 3.394 48.176 6.197 75.131 8.411v0zM813.1 418.458c-21.941 20.782-149.771 54.175-168.804 56.831 107.171 6.311 244.498-29.905 257.361-32.731-0.717-2.165-79.633-22.626-88.557-24.1v0zM292.033 530.428v54.348c11.755 2.459 27.715 5.803 47.021 9.69v-52.822c-2.484-0.493-4.918-0.937-7.356-1.427-14.188-2.901-27.42-6.15-39.665-9.789v0zM866.785 537.457v52.977c27.029-5.559 44.542-9.299 48.913-10.479-0.567-2.604-0.885-5.311-0.885-8.067v-48.201c-14.267 5.114-30.347 9.738-48.028 13.77v0zM820.33 599.532v-53.219c-18.393 2.905-38.092 5.461-58.903 7.673v53.711c21.078-2.361 40.829-5.062 58.903-8.165v0zM714.951 611.927v-53.907c-26.142 1.922-53.565 3.199-81.87 3.836v53.909c28.529-0.594 55.971-1.97 81.87-3.838v0zM507.092 560.185v53.904c25.456 1.281 52.066 2.067 79.534 2.116v-53.906c-27.296-0.099-53.908-0.838-79.534-2.115v0zM460.639 611.139v-53.907c-26.586-2.067-51.767-4.82-75.107-8.015v53.46c22.945 3.442 48.13 6.196 75.107 8.461v0zM135.181 330.809v54.326c11.756 2.48 27.714 5.779 47.020 9.689v-52.85c-2.508-0.467-34.799-7.551-47.020-11.165v0zM709.905 337.819v52.946c27.056-5.508 44.566-9.269 48.946-10.449-0.593-2.608-0.89-5.311-0.89-8.044v-48.249c-14.261 5.138-30.35 9.761-48.057 13.795v0zM663.451 399.866v-53.219c-18.393 2.901-38.091 5.483-58.895 7.673v53.735c21.1-2.314 40.846-5.066 58.895-8.189v0zM558.074 412.26v-53.883c-26.142 1.891-53.563 3.196-81.87 3.837v53.908c28.553-0.617 55.975-1.919 81.87-3.862v0zM350.242 360.565v53.932c25.428 1.253 52.064 1.967 79.507 2.067v-53.932c-27.273-0.099-53.885-0.788-79.507-2.067v0zM303.786 411.446v-53.835c-26.607-2.089-51.769-4.795-75.13-8.042v53.467c22.945 3.393 48.149 6.22 75.13 8.41v0zM127.459 243.332c13.057 2.827 34.134 7.183 61.11 12.642 62.343 12.639 149.499 20.435 246.613 20.435 97.14 0 184.275-7.796 246.614-20.435 28.304-5.706 50.117-10.23 62.982-13.037-0.686-2.211-35.706-13.942-62.982-19.476-62.34-12.592-149.474-20.41-246.614-20.41-97.115 0-184.271 7.818-246.613 20.41-25.894 5.264-60.303 17.41-61.11 19.871z" p-id="15332"></path></svg>