<?xml version="1.0" standalone="no"?><!DOCTYPE svg PUBLIC "-//W3C//DTD SVG 1.1//EN" "http://www.w3.org/Graphics/SVG/1.1/DTD/svg11.dtd"><svg t="1545816550394" class="icon" style="" viewBox="0 0 1024 1024" version="1.1" xmlns="http://www.w3.org/2000/svg" p-id="4387" xmlns:xlink="http://www.w3.org/1999/xlink" width="200" height="200"><defs><style type="text/css"></style></defs><path d="M686.324 280.209c0-96.276-78.048-174.324-174.324-174.324-96.276 0-174.324 78.048-174.324 174.324S415.724 454.533 512 454.533c96.276 0 174.324-78.048 174.324-174.324zM512 422.838c-78.772 0-142.629-63.857-142.629-142.629S433.228 137.581 512 137.581s142.629 63.857 142.629 142.629S590.772 422.838 512 422.838z m15.848 459.581h-31.695c-8.753 0-15.848 7.095-15.848 15.848s7.095 15.848 15.848 15.848h31.695c8.753 0 15.848-7.095 15.848-15.848-0.001-8.753-7.096-15.848-15.848-15.848z m364.356-141.936c0.011-0.243 0.139-0.447 0.139-0.693 0-3.206-1.189-6.016-2.824-8.51C838.819 570.909 689.136 454.533 512 454.533c-177.137 0-326.823 116.377-377.521 276.749-1.635 2.493-2.822 5.304-2.822 8.508 0 0.245 0.129 0.449 0.139 0.692-1.464 5.057-3.154 10.018-4.42 15.156h162.757v63.391c0 52.515 42.571 95.086 95.086 95.086h47.543c8.753 0 15.848-7.095 15.848-15.848s-7.095-15.848-15.848-15.848h-47.543c-35.009 0-63.391-28.381-63.391-63.391v-95.086H170.403c34.875-93.87 107.233-169.441 198.969-208.536v10.441c0 65.642 53.215 118.857 118.857 118.857h7.924v33.936c-27.293 7.07-47.543 31.646-47.543 61.149 0 35.009 28.381 63.391 63.391 63.391s63.391-28.381 63.391-63.391c0-29.503-20.251-54.08-47.543-61.149v-33.936h7.924c65.642 0 118.857-53.215 118.857-118.857v-10.441c91.736 39.095 164.094 114.666 198.969 208.536H702.172v95.086c0 35.009-28.381 63.391-63.391 63.391h-15.848c-8.753 0-15.848 7.095-15.848 15.848s7.095 15.848 15.848 15.848h15.848c52.514 0 95.086-42.571 95.086-95.086v-63.391h162.757c-1.266-5.138-2.956-10.098-4.42-15.155z m-348.509-0.692c0 17.505-14.19 31.695-31.695 31.695-17.506 0-31.695-14.19-31.695-31.695 0-17.506 14.19-31.695 31.695-31.695 17.505-0.001 31.695 14.189 31.695 31.695z m79.238-221.867c0 52.515-42.572 95.086-95.086 95.086h-31.695c-52.515 0-95.086-42.571-95.086-95.086v-14.215c35.008-11.19 72.209-17.48 110.933-17.48s75.925 6.29 110.933 17.48v14.215z" p-id="4388"></path></svg>