<?xml version="1.0" standalone="no"?><!DOCTYPE svg PUBLIC "-//W3C//DTD SVG 1.1//EN" "http://www.w3.org/Graphics/SVG/1.1/DTD/svg11.dtd"><svg t="1545816588088" class="icon" style="" viewBox="0 0 1024 1024" version="1.1" xmlns="http://www.w3.org/2000/svg" p-id="4773" xmlns:xlink="http://www.w3.org/1999/xlink" width="200" height="200"><defs><style type="text/css"></style></defs><path d="M893.456828 709.055005" p-id="4774"></path><path d="M491.889987 337.939709" p-id="4775"></path><path d="M568.154951 338.993714" p-id="4776"></path><path d="M953.680445 891.590318l-25.311479 0c-0.020466 0 0.135076-0.229221 0.028653-1.335415l-43.853787-456.93487c-2.194992-22.784936-22.182208-42.126446-44.561915-42.126446l-85.232197 0c-22.988574 0-42.434461 19.531845-44.265156 42.161239l-7.116071 86.36602c-0.442068 0.135076-1.076518-0.613984-1.888-0.613984L360.551706 519.106862c-23.26896 0-54.891168 27.189246-54.891168 51.296293l0 44.89449L200.741977 615.297644c-22.145369 0-42.392506 21.251-44.218084 44.514843l-17.97335 230.398414c-0.066515 0.853437 0.079818 1.379417 0.063445 1.379417L101.360526 891.590318c-11.766998 0-21.308305 9.722432-21.308305 21.48943s9.540284 21.48943 21.308305 21.48943l78.07417 0 708.491163 0 65.75561 0c11.766998 0 21.308305-9.722432 21.308305-21.48943S965.447443 891.590318 953.680445 891.590318zM181.093475 891.590318l17.916045-230.752478c0.104377-1.290389 1.62808-3.584642 1.732457-3.584642l117.194142 0c23.39892 0 39.119973-13.94971 39.119973-37.588083l-0.052189-51.142797c0.384763-1.705851 2.938935 3.797489 4.703115-6.435573l339.773474 0c23.857361 0 42.470277-14.506389 44.265156-36.657898l7.215332-87.626733c0.020466-0.291642 0.858554-0.802272 1.789763-0.802272l85.023442 0.176009c0.821715 0.207731 2.252297-0.096191 2.351558 0.934279l43.765783 453.479165L181.093475 891.589294 181.093475 891.590318z" p-id="4777"></path><path d="M412.688133 302.537408c4.754281 0 9.607822-0.270153 14.424524-0.806365 36.081777-4.01136 58.660005-17.905812 72.999594-31.353079 10.989285 6.66684 25.330922 12.173251 43.491537 12.173251 2.746554 0 5.552459-0.13303 8.339946-0.38988 17.143449-1.597381 30.729885-7.085372 41.325198-13.489222 11.95631 15.115256 29.43131 31.04097 55.519478 37.687344 9.583263 2.439562 19.175735 3.677762 28.513404 3.677762 18.986423 0 34.760688-5.074575 47.226604-11.265578 10.900258 14.638395 28.718065 29.517267 58.94346 34.706453l0.75827 0.12996 0.762363 0.101307c6.04774 0.816598 12.168134 1.227967 18.192338 1.227967 48.986691 0 87.039355-26.91807 99.308797-70.249971 15.471366-54.645574-2.833535-100.692307-50.223868-126.334313-13.986549-7.569396-29.79049-11.407817-46.967708-11.407817-5.468548 0-10.559497 0.369414-15.204283 0.868787-18.065448-39.799448-48.573275-62.805418-90.937129-68.493977-5.130857-0.689708-10.279111-1.037632-15.302521-1.037632-39.558971 0-66.046229 20.800745-82.830497 37.449937-12.088316-9.688663-29.693276-19.419282-54.143131-19.419282-22.478967 0-39.344077 7.860015-51.5337 16.464997-16.121166-17.46579-41.829687-36.667108-82.84687-36.667108-6.463202 0-13.179161 0.50449-19.961634 1.50119-70.249971 10.305717-110.912066 66.342987-101.181447 139.440819C298.265104 248.90286 345.534687 302.537408 412.688133 302.537408zM398.73126 99.790774c4.880147-0.715291 9.470699-1.066285 13.773701-1.066285 53.53631 0 64.267722 51.235918 77.845972 51.235918 14.671141 0 23.331381-31.033807 56.534598-31.033807 31.792077 0 39.700187 31.223119 54.902424 31.223119 0.675382 0 1.362021-0.062422 2.068102-0.190335 15.912411-2.894933 34.342156-49.064462 80.002079-49.064462 3.085268 0 6.288217 0.207731 9.630335 0.657986 57.265238 7.691169 61.790298 60.116169 66.340941 66.550719 2.52859 3.573385 6.598278 4.700045 11.769045 4.700045 8.78099 0 20.738323-3.245927 33.704636-3.245927 8.66024 0 17.768689 1.445932 26.687826 6.27389 36.078707 19.520589 36.937261 50.972928 29.499871 77.241198-8.343015 29.465079-34.05563 39.244816-58.304917 39.244816-4.246721 0-8.445346-0.298805-12.502755-0.845251-45.255717-7.768941-37.614689-48.923246-52.858882-50.785663-0.174985-0.020466-0.354064-0.031722-0.535189-0.031722-9.152451-0.00307-26.01756 26.762527-59.987233 26.762527-5.53097 0-11.514241-0.188288-17.993816-1.837858-37.442774-9.538237-46.930869-55.513338-58.232263-55.513338-0.047072 0-0.092098 0-0.140193 0-11.363815 0-19.736507 27.088962-52.9387 30.179346-1.511423 0.140193-2.975774-0.054235-4.393054-0.054235-28.201296 0-38.105876-26.63359-48.496527-26.63359-0.553609 0-1.108241 0.008186-1.666966 0.166799-11.582803 3.279696-14.362102 39.377846-71.037916 45.678342-3.316535 0.369414-6.559393 0.532119-9.714246 0.532119-46.358841 0-75.0503-38.21537-79.082126-68.502164C328.131319 150.314471 343.239412 107.932198 398.73126 99.790774z" p-id="4778"></path></svg>