<?xml version="1.0" standalone="no"?><!DOCTYPE svg PUBLIC "-//W3C//DTD SVG 1.1//EN" "http://www.w3.org/Graphics/SVG/1.1/DTD/svg11.dtd"><svg t="1546422306868" class="icon" style="" viewBox="0 0 1024 1024" version="1.1" xmlns="http://www.w3.org/2000/svg" p-id="5811" xmlns:xlink="http://www.w3.org/1999/xlink" width="200" height="200"><defs><style type="text/css"></style></defs><path d="M205.515 496.992c-7.801 0-13.003 5.198-13.003 13.001V532.1c0 7.799 5.202 13.002 13.003 13.002s13.001-5.203 13.001-13.002v-22.107c0.001-7.803-6.5-13.001-13.001-13.001zM318.637 496.992c-7.803 0-13.001 5.198-13.001 13.001V532.1c0 7.799 5.199 13.002 13.001 13.002 7.801 0 13.002-5.203 13.002-13.002v-22.107c0-7.803-5.201-13.001-13.002-13.001zM433.058 496.992c-7.802 0-13.004 5.198-13.004 13.001V532.1c0 7.799 5.202 13.002 13.004 13.002 7.801 0 13.002-5.203 13.002-13.002v-22.107c0-7.803-6.501-13.001-13.002-13.001zM205.515 585.408c-7.801 0-13.003 5.199-13.003 13.002v22.104c0 7.803 5.202 13.002 13.003 13.002s13.001-5.199 13.001-13.002V598.41c0.001-6.5-6.5-13.002-13.001-13.002zM318.637 585.408c-7.803 0-13.001 5.199-13.001 13.002v22.104c0 7.803 5.199 13.002 13.001 13.002 7.801 0 13.002-5.199 13.002-13.002V598.41c0-6.5-5.201-13.002-13.002-13.002zM433.058 585.408c-7.802 0-13.004 5.199-13.004 13.002v22.104c0 7.803 5.202 13.002 13.004 13.002 7.801 0 13.002-5.199 13.002-13.002V598.41c0-6.5-6.501-13.002-13.002-13.002zM205.515 675.125c-7.801 0-13.003 5.199-13.003 13.002v22.105c0 7.799 5.202 13.002 13.003 13.002s13.001-5.203 13.001-13.002v-22.105c0.001-6.5-6.5-13.002-13.001-13.002zM318.637 675.125c-7.803 0-13.001 5.199-13.001 13.002v22.105c0 7.799 5.199 13.002 13.001 13.002 7.801 0 13.002-5.203 13.002-13.002v-22.105c0-6.5-5.201-13.002-13.002-13.002zM433.058 675.125c-7.802 0-13.004 5.199-13.004 13.002v22.105c0 7.799 5.202 13.002 13.004 13.002 7.801 0 13.002-5.203 13.002-13.002v-22.105c0-6.5-6.501-13.002-13.002-13.002zM205.515 764.842c-7.801 0-13.003 5.201-13.003 13v22.107c0 7.801 5.202 13.002 13.003 13.002s13.001-5.201 13.001-13.002v-22.107c0.001-7.799-6.5-13-13.001-13zM318.637 764.842c-7.803 0-13.001 5.201-13.001 13v22.107c0 7.801 5.199 13.002 13.001 13.002 7.801 0 13.002-5.201 13.002-13.002v-22.107c0-7.799-5.201-13-13.002-13zM433.058 764.842c-7.802 0-13.004 5.201-13.004 13v22.107c0 7.801 5.202 13.002 13.004 13.002 7.801 0 13.002-5.201 13.002-13.002v-22.107c0-7.799-6.501-13-13.002-13zM205.515 854.561c-7.801 0-13.003 5.199-13.003 13.002v22.102c0 7.803 5.202 13.002 13.003 13.002s13.001-5.199 13.001-13.002v-22.102c0.001-7.803-6.5-13.002-13.001-13.002zM318.637 854.561c-7.803 0-13.001 5.199-13.001 13.002v22.102c0 7.803 5.199 13.002 13.001 13.002 7.801 0 13.002-5.199 13.002-13.002v-22.102c0-7.803-5.201-13.002-13.002-13.002zM433.058 854.561c-7.802 0-13.004 5.199-13.004 13.002v22.102c0 7.803 5.202 13.002 13.004 13.002 7.801 0 13.002-5.199 13.002-13.002v-22.102c0-7.803-6.501-13.002-13.002-13.002zM547.479 496.992c-7.802 0-13.003 5.198-13.003 13.001V532.1c0 7.799 5.201 13.002 13.003 13.002 7.804 0 13.003-5.203 13.003-13.002v-22.107c0-7.803-5.2-13.001-13.003-13.001zM661.902 496.992c-7.802 0-13.003 5.198-13.003 13.001V532.1c0 7.799 5.201 13.002 13.003 13.002s13.003-5.203 13.003-13.002v-22.107c0-7.803-6.504-13.001-13.003-13.001zM547.479 585.408c-7.802 0-13.003 5.199-13.003 13.002v22.104c0 7.803 5.201 13.002 13.003 13.002 7.804 0 13.003-5.199 13.003-13.002V598.41c0-6.5-5.2-13.002-13.003-13.002zM661.902 585.408c-7.802 0-13.003 5.199-13.003 13.002v22.104c0 7.803 5.201 13.002 13.003 13.002s13.003-5.199 13.003-13.002V598.41c0-6.5-6.504-13.002-13.003-13.002zM547.479 675.125c-7.802 0-13.003 5.199-13.003 13.002v22.105c0 7.799 5.201 13.002 13.003 13.002 7.804 0 13.003-5.203 13.003-13.002v-22.105c0-6.5-5.2-13.002-13.003-13.002zM661.902 675.125c-7.802 0-13.003 5.199-13.003 13.002v22.105c0 7.799 5.201 13.002 13.003 13.002s13.003-5.203 13.003-13.002v-22.105c0-6.5-6.504-13.002-13.003-13.002zM547.479 764.842c-7.802 0-13.003 5.201-13.003 13v22.107c0 7.801 5.201 13.002 13.003 13.002 7.804 0 13.003-5.201 13.003-13.002v-22.107c0-7.799-5.2-13-13.003-13zM661.902 764.842c-7.802 0-13.003 5.201-13.003 13v22.107c0 7.801 5.201 13.002 13.003 13.002s13.003-5.201 13.003-13.002v-22.107c0-7.799-6.504-13-13.003-13zM547.479 854.561c-7.802 0-13.003 5.199-13.003 13.002v22.102c0 7.803 5.201 13.002 13.003 13.002 7.804 0 13.003-5.199 13.003-13.002v-22.102c0-7.803-5.2-13.002-13.003-13.002zM661.902 854.561c-7.802 0-13.003 5.199-13.003 13.002v22.102c0 7.803 5.201 13.002 13.003 13.002s13.003-5.199 13.003-13.002v-22.102c0-7.803-6.504-13.002-13.003-13.002z" p-id="5812"></path><path d="M960.956 933.873h-52.008L880.342 230.44c0-6.501-6.501-13.002-13.002-13.002H759.419c-6.5 0-13.002 5.202-13.002 13.002l-9.103 222.342-202.838-126.123c-3.9-2.601-9.102-2.601-13.001 0-3.901 2.601-6.501 6.5-6.501 11.702V437.178l-184.635-110.52c-3.901-2.601-9.103-2.601-13.001 0-3.902 2.601-6.503 6.5-6.503 11.702v98.818l-183.333-109.22c-3.901-2.601-9.103-2.601-13.004 0-3.899 2.6-6.5 6.502-6.5 11.702v595.515H78.091c-7.8 0-13.001 5.199-13.001 13s5.202 13.002 13.001 13.002h884.167c5.2-1.303 11.703-6.5 11.703-14.301-0.001-7.804-5.202-13.003-13.005-13.003z m-243.144-2.6H132.7V360.465l183.335 109.22c3.901 2.599 9.103 2.599 13.003 0 3.9-2.6 6.501-6.502 6.501-11.701v-98.82l183.336 109.222c3.898 2.6 9.1 2.6 13.001 0 3.899-2.604 6.5-6.504 6.5-10.402l1.3-29.906v-68.914l196.337 120.922-18.201 451.187z m26.004 2.6l28.604-690.43h81.918l28.604 690.43H743.816z" p-id="5813"></path></svg>