<?xml version="1.0" standalone="no"?><!DOCTYPE svg PUBLIC "-//W3C//DTD SVG 1.1//EN" "http://www.w3.org/Graphics/SVG/1.1/DTD/svg11.dtd"><svg t="1543994873397" class="icon" style="" viewBox="0 0 1025 1024" version="1.1" xmlns="http://www.w3.org/2000/svg" p-id="4959" xmlns:xlink="http://www.w3.org/1999/xlink" width="200.1953125" height="200"><defs><style type="text/css"></style></defs><path d="M843.674 514.301c0-94.451-51.227-176.838-127.348-221.192-3.455-1.826-11.6-5.359-17.279-5.359-16.902 0-30.605 13.709-30.605 30.612 0 11.344 6.043 21.464 15.211 26.752 58.854 33.443 98.582 96.653 98.582 169.185 0 73.808-41.107 138-101.676 170.965-8.814 5.372-14.66 15.145-14.66 26.224 0 16.909 13.711 30.612 30.613 30.612 7.182 0.064 15.689-4.172 15.689-4.172C790.615 694.195 843.674 610.461 843.674 514.301zM808.344 137.458c-5.688-3.404-11.361-6.184-18.221-6.184-16.824 0-30.457 13.639-30.457 30.459 0 12.123 7.207 21.873 17.387 27.404C888.863 254.378 964.07 375.505 964.07 514.301c0 138.699-75.109 259.753-186.799 325.02-9.807 5.322-18.246 15.402-18.246 27.867 0 16.826 13.639 30.456 30.459 30.456 6.76 0 12.146-2.594 17.988-5.984 129.758-75.726 217.025-216.296 217.025-377.359C1024.498 353.592 937.611 213.298 808.344 137.458zM80.775 302.476l151.259 0c20.174 0 51.169-8.287 186.354-107.302 24.097-17.651 47.63-35.383 67.996-50.946 0 0 0.52 397.568 0.52 398.723 0 16.98 13.764 30.744 30.745 30.744 16.98 0 30.744-13.764 30.744-30.744 0-3.293-1.488-452.575-1.488-452.575 0.012-14.226-8.141-27.199-20.961-33.385-12.813-6.177-28.036-4.484-39.187 4.383-0.528 0.429-54.833 43.586-114.813 87.76C267.62 225.983 237.251 238.78 231.087 240.81L100.405 240.81c-0.754 0-1.468 0.103-2.215 0.114L31.458 240.924C14.639 240.924 1 254.563 1 271.383l0 486.265c0 16.821 13.633 30.454 30.458 30.454l223.817 0.012c6.068 2.204 34.731 15.468 127.295 90.954 53.852 43.906 102.177 86.771 102.655 87.192 6.923 6.146 15.714 9.354 24.627 9.354 5.128 0 10.309-1.073 15.184-3.258 13.307-5.987 21.867-19.215 21.867-33.813 0 0 0.064-170.331 0.064-170.766 0-0.436-0.047-0.856-0.064-1.289l0-0.92-0.047 0c-1.137-15.827-14.303-28.323-30.42-28.323-16.862 0-30.532 13.67-30.532 30.532 0 1.778 0.475 111.735 0.475 111.735-16.417-13.869-34.715-29.1-53.451-44.265C309.353 735.152 278.78 726.777 258.057 726.777c-0.409 0-0.786 0.108-1.196 0.122-0.401-0.014-0.785-0.122-1.193-0.122L87.801 726.777c-21.342 0-26.28-6.03-26.28-27.462L61.521 326.124C61.521 311.604 63.239 302.476 80.775 302.476z" p-id="4960"></path></svg>