<?xml version="1.0" standalone="no"?><!DOCTYPE svg PUBLIC "-//W3C//DTD SVG 1.1//EN" "http://www.w3.org/Graphics/SVG/1.1/DTD/svg11.dtd"><svg t="1546423671478" class="icon" style="" viewBox="0 0 1024 1024" version="1.1" xmlns="http://www.w3.org/2000/svg" p-id="8549" xmlns:xlink="http://www.w3.org/1999/xlink" width="200" height="200"><defs><style type="text/css"></style></defs><path d="M680.472616 699.358a37.569809 37.569809 0 0 0-41.21488 31.654563 245.147001 245.147001 0 0 1-8.089499 39.008653A251.33403 251.33403 0 1 1 222.632534 511.652839a37.010259 37.010259 0 0 0-49.320367-55.203639 324.89092 324.89092 0 1 0 527.783877 334.131494 377.088974 377.088974 0 0 0 10.311713-50.055775 35.171736 35.171736 0 0 0-30.935141-41.166919z" p-id="8550"></path><path d="M505.285396 260.638552A130.535103 130.535103 0 0 0 635.580691 130.295296a130.295296 130.295296 0 1 0-130.295295 130.295295z m0-186.234343a56.674457 56.674457 0 1 1-56.754393 56.690444 56.706431 56.706431 0 0 1 56.754393-56.754392z" p-id="8551"></path><path d="M969.056712 968.7735L900.567749 795.04111v-0.735409q-40.863163-94.947701-128.153017-99.392129H499.386136a20.38362 20.38362 0 0 0-6.618681 0.735409 20.38362 20.38362 0 0 0-6.618681-0.735409c-67.721579 0-122.925218-47.849548-122.925218-106.730232v-112.597518c0-58.880684 55.203639-106.730232 122.925218-106.730232s122.925218 47.849548 122.925218 106.730232v56.674457a36.450708 36.450708 0 0 0 36.770451 36.770451h198.784259a36.770451 36.770451 0 1 0 0-73.540903h-161.949858v-19.904005c0-99.376142-88.329019-180.351071-196.53007-180.351071s-196.546057 80.974929-196.546057 180.351071v113.364901c0 99.376142 88.329019 180.351071 196.546057 180.351071a20.38362 20.38362 0 0 0 6.618681-0.735409 20.38362 20.38362 0 0 0 6.618681 0.735409h265.03502c26.506699 0 48.584957 9.592292 67.721579 54.46823l68.456989 172.980993a37.042233 37.042233 0 0 0 33.860789 23.549076 28.872798 28.872798 0 0 0 13.25335-2.941636 38.081398 38.081398 0 0 0 21.342849-48.584957z" p-id="8552"></path></svg>