<?xml version="1.0" standalone="no"?><!DOCTYPE svg PUBLIC "-//W3C//DTD SVG 1.1//EN" "http://www.w3.org/Graphics/SVG/1.1/DTD/svg11.dtd"><svg t="1540785749686" class="icon" style="" viewBox="0 0 1024 1024" version="1.1" xmlns="http://www.w3.org/2000/svg" p-id="2169" xmlns:xlink="http://www.w3.org/1999/xlink" width="200" height="200"><defs><style type="text/css"></style></defs><path d="M512 17.93751c-272.86305 0-494.052542 221.19944-494.052542 494.052541 0 272.86305 221.19944 494.052542 494.052542 494.052542 272.86305 0 494.052542-221.19944 494.052542-494.052542 0-272.853101-221.189492-494.052542-494.052542-494.052541z m0 966.377118c-260.854967 0-472.324576-211.46961-472.324576-472.324577S251.135085 39.665475 512 39.665475c260.854967 0 472.324576 211.459661 472.324576 472.324576-0.009949 260.864915-211.46961 472.324576-472.324576 472.324577z" p-id="2170"></path><path d="M543.408052 345.200062h125.652107v150.115965h-125.652107z" p-id="2171"></path><path d="M515.561635 72.884191c-242.50956 0-439.115809 196.5963-439.115809 439.115809 0 242.50956 196.5963 439.115809 439.115809 439.115809 242.50956 0 439.115809-196.606249 439.115809-439.115809 0-242.519509-196.606249-439.115809-439.115809-439.115809z m-34.979636 205.589927h267.003264v283.557904H480.581999V278.474118z m-94.234105 281.866625v201.859164h-62.826053v-168.133064c-15.709 34.49215-32.950101 65.22369-53.792632 92.194621-4.457018-22.513913-12.754236-52.927095-24.652884-87.419244 32.751127-38.969066 58.757034-86.832271 78.117208-136.874242h-78.196797v-66.715996h78.535053V337.758433c-15.709 1.522151-16.564589 2.248407-31.447847 2.248407-11.948391 1.502254-21.68817 2.248407-29.139748 2.248406-3.004508-23.966423-6.735271-44.968133-11.202238-62.955386 4.457018 0 11.152495-0.736204 20.086429-2.248407 47.654283-4.506762 103.506296-11.242033 167.565988-20.235659l15.629411 62.945437c-4.476916 0-15.709 1.502254-27.627546 4.506762-16.425307 1.482357-25.349293 3.014457-41.058293 4.486865v66.487175h62.826053v66.715996h-62.826053v62.428105l23.180476-20.245609c20.842531 17.977305 43.963314 38.979014 66.308099 62.955387l-41.695011 40.461371c-1.492305-1.472408-6.406964-3.750661-9.361728-6.735271a271.370745 271.370745 0 0 0-38.421887-40.481269z m95.477693 206.843463c-2.984611-1.502254-7.471475-5.233017-13.400902-11.242033-8.933934-5.989119-24.563345-17.231152-46.918078-33.706202 37.208145-32.940152 71.491373-80.186538 102.770091-141.649619l64.805845 33.706202a1285.392196 1285.392196 0 0 1-107.256956 152.891652z m230.123426-2.248406c-31.26877-59.950878-61.821234-110.888233-91.597699-152.891653l60.328928-33.706202c33.159024 48.420333 65.939997 97.139126 98.323022 146.146432l-67.054251 40.451423z" p-id="2172"></path></svg>