<?xml version="1.0" standalone="no"?><!DOCTYPE svg PUBLIC "-//W3C//DTD SVG 1.1//EN" "http://www.w3.org/Graphics/SVG/1.1/DTD/svg11.dtd"><svg t="1546422205599" class="icon" style="" viewBox="0 0 1024 1024" version="1.1" xmlns="http://www.w3.org/2000/svg" p-id="2755" xmlns:xlink="http://www.w3.org/1999/xlink" width="200" height="200"><defs><style type="text/css"></style></defs><path d="M953.6 652.8l-70.4 70.4c-51.2 51.2-172.8 166.4-172.8 166.4l-64 70.4C576 1036.8 448 1036.8 371.2 960c0 0-89.6-64-160-140.8-76.8-76.8-140.8-166.4-140.8-166.4C-6.4 576-6.4 448 70.4 371.2c0 0 57.6-76.8 128-153.6C275.2 140.8 371.2 64 371.2 64 448-12.8 576-12.8 652.8 64c0 0 89.6 64 160 140.8 76.8 76.8 140.8 166.4 140.8 166.4 76.8 76.8 76.8 204.8 0 281.6zM921.6 384s-57.6-83.2-128-153.6c-76.8-70.4-153.6-128-153.6-128C569.6 32 454.4 32 384 102.4c0 0-89.6 70.4-160 140.8C160 313.6 108.8 384 108.8 384 38.4 454.4 38.4 569.6 108.8 640c0 0 57.6 83.2 128 153.6 70.4 70.4 147.2 128 147.2 128 70.4 70.4 185.6 70.4 256 0l64-64 153.6-153.6c57.6-64 64-64 64-64 64-70.4 64-185.6 0-256z m-166.4 236.8H608V768c0 25.6-19.2 44.8-44.8 44.8H460.8c-25.6 0-44.8-19.2-44.8-44.8V620.8H268.8c-25.6 0-44.8-19.2-44.8-44.8V467.2c0-25.6 19.2-44.8 44.8-44.8h147.2V281.6c0-25.6 19.2-44.8 44.8-44.8h108.8c25.6 0 44.8 19.2 44.8 44.8v147.2h147.2c25.6 0 44.8 19.2 44.8 44.8V576c-6.4 25.6-25.6 44.8-51.2 44.8z m0-153.6h-192v-192H460.8v192h-192V576h192v192h108.8V576h192l-6.4-108.8z" fill="" p-id="2756"></path></svg>