<?xml version="1.0" standalone="no"?><!DOCTYPE svg PUBLIC "-//W3C//DTD SVG 1.1//EN" "http://www.w3.org/Graphics/SVG/1.1/DTD/svg11.dtd"><svg t="1546835485071" class="icon" style="" viewBox="0 0 1024 1024" version="1.1" xmlns="http://www.w3.org/2000/svg" p-id="4535" xmlns:xlink="http://www.w3.org/1999/xlink" width="200" height="200"><defs><style type="text/css"></style></defs><path d="M299.18014 452.272343h358.991785" fill="#FFFFFF" p-id="4536"></path><path d="M658.171925 478.864327H299.18014a26.591984 26.591984 0 0 1 0-53.183968h358.991785a26.591984 26.591984 0 0 1 0 53.183968z" fill="" p-id="4537"></path><path d="M299.18014 611.824247h465.359721" fill="#FFFFFF" p-id="4538"></path><path d="M764.539861 638.416231H299.18014a26.591984 26.591984 0 0 1 0-53.183968h465.359721a26.591984 26.591984 0 0 1 0 53.183968z" fill="" p-id="4539"></path><path d="M299.18014 771.376152h332.399801" fill="#FFFFFF" p-id="4540"></path><path d="M631.579941 797.968136H299.18014a26.591984 26.591984 0 0 1 0-53.183969h332.399801a26.591984 26.591984 0 0 1 0 53.183969z" fill="" p-id="4541"></path><path d="M737.947877 1024H285.884148A186.143888 186.143888 0 0 1 99.74026 837.856112V332.608415a186.143888 186.143888 0 0 1 186.143888-186.143889 26.591984 26.591984 0 0 1 0 53.183968A132.95992 132.95992 0 0 0 152.924228 332.608415v505.247697a132.95992 132.95992 0 0 0 132.95992 132.95992h452.063729a132.95992 132.95992 0 0 0 132.95992-132.95992V332.608415a132.95992 132.95992 0 0 0-132.95992-132.959921 26.591984 26.591984 0 0 1 0-53.183968 186.143888 186.143888 0 0 1 186.143888 186.143889v505.247697a186.143888 186.143888 0 0 1-186.143888 186.143888z" fill="" p-id="4542"></path><path d="M644.875933 292.720439H378.956092a106.367936 106.367936 0 0 1 0-212.735873h29.915982a106.367936 106.367936 0 0 1 206.087877 0H644.875933a106.367936 106.367936 0 0 1 0 212.735873zM378.956092 133.168534a53.183968 53.183968 0 0 0 0 106.367937h265.919841a53.183968 53.183968 0 0 0 0-106.367937h-53.183968a26.591984 26.591984 0 0 1-26.591984-26.591984 53.183968 53.183968 0 0 0-106.367937 0 26.591984 26.591984 0 0 1-26.591984 26.591984z" fill="" p-id="4543"></path></svg>