<?xml version="1.0" standalone="no"?><!DOCTYPE svg PUBLIC "-//W3C//DTD SVG 1.1//EN" "http://www.w3.org/Graphics/SVG/1.1/DTD/svg11.dtd"><svg t="1546422275808" class="icon" style="" viewBox="0 0 1024 1024" version="1.1" xmlns="http://www.w3.org/2000/svg" p-id="5428" xmlns:xlink="http://www.w3.org/1999/xlink" width="200" height="200"><defs><style type="text/css"></style></defs><path d="M760.797 6.896 263.202 6.896c-27.99 0-50.694 22.704-50.694 50.683l0 908.864c0 28.004 22.704 50.66 50.694 50.66l497.595 0c27.99 0 50.695-22.656 50.695-50.66L811.492 57.579C811.492 29.6 788.789 6.896 760.797 6.896zM760.797 979.691 263.202 979.691c-7.314 0-13.259-5.942-13.259-13.247L249.943 792.74l524.111 0 0 173.704 0.001 0C774.056 973.749 768.112 979.691 760.797 979.691zM774.056 755.327 249.945 755.327 249.945 157.322l524.111 0L774.056 755.327zM774.057 119.909 774.057 119.909 249.945 119.909l0-62.33c0-7.315 5.944-13.27 13.258-13.27l497.595 0c7.315 0 13.259 5.955 13.259 13.27L774.057 119.909z" p-id="5429"></path><path d="M514.373 881.042m-42.474 0a42.474 42.474 0 1 0 84.948 0 42.474 42.474 0 1 0-84.948 0Z" p-id="5430"></path></svg>