<?xml version="1.0" standalone="no"?><!DOCTYPE svg PUBLIC "-//W3C//DTD SVG 1.1//EN" "http://www.w3.org/Graphics/SVG/1.1/DTD/svg11.dtd"><svg t="1542963734021" class="icon" style="" viewBox="0 0 1024 1024" version="1.1" xmlns="http://www.w3.org/2000/svg" p-id="4629" xmlns:xlink="http://www.w3.org/1999/xlink" width="200" height="200"><defs><style type="text/css"></style></defs><path d="M166.4 595.2 38.4 467.2c-6.4-6.4-12.8-6.4-19.2 0s-6.4 12.8 0 19.2l121.6 128-121.6 121.6c-6.4 6.4-6.4 12.8 0 19.2 0 0 6.4 6.4 6.4 6.4s6.4 0 6.4-6.4l121.6-121.6C172.8 620.8 172.8 601.6 166.4 595.2z" p-id="4630"></path><path d="M153.6 736c-6.4 6.4-6.4 12.8 0 19.2 0 0 6.4 6.4 6.4 6.4 0 0 6.4 0 6.4-6.4l121.6-121.6c6.4-6.4 6.4-12.8 6.4-19.2s0-12.8-6.4-19.2L166.4 467.2c-6.4-6.4-12.8-6.4-19.2 0-6.4 6.4-6.4 12.8 0 19.2l121.6 128L153.6 736z" p-id="4631"></path><path d="M806.4 428.8l-51.2 89.6c-12.8 25.6-19.2 44.8-25.6 51.2l0 0c-6.4-19.2-32-70.4-76.8-140.8L608 428.8 697.6 576 627.2 576l0 32 83.2 0 0 44.8L627.2 652.8l0 32 83.2 0 0 64 44.8 0 0-64L832 684.8l0-32-83.2 0L748.8 608 832 608 832 576 768 576l89.6-153.6L806.4 422.4z" p-id="4632"></path><path d="M902.4 198.4 121.6 198.4C57.6 198.4 0 249.6 0 320l0 57.6c0 12.8 12.8 25.6 25.6 25.6s25.6-12.8 25.6-25.6L51.2 320c0-38.4 32-70.4 70.4-70.4l780.8 0c38.4 0 70.4 32 70.4 70.4l0 441.6c0 38.4-32 70.4-70.4 70.4L121.6 832c-12.8 0-32-6.4-44.8-12.8-12.8-6.4-25.6-6.4-32 6.4-6.4 12.8-6.4 25.6 6.4 32 19.2 12.8 44.8 25.6 70.4 25.6l780.8 0c70.4 0 121.6-57.6 121.6-121.6L1024 320C1024 249.6 966.4 198.4 902.4 198.4z" p-id="4633"></path></svg>