<?xml version="1.0" standalone="no"?><!DOCTYPE svg PUBLIC "-//W3C//DTD SVG 1.1//EN" "http://www.w3.org/Graphics/SVG/1.1/DTD/svg11.dtd"><svg t="1542964289428" class="icon" style="" viewBox="0 0 1024 1024" version="1.1" xmlns="http://www.w3.org/2000/svg" p-id="9726" xmlns:xlink="http://www.w3.org/1999/xlink" width="200" height="200"><defs><style type="text/css"></style></defs><path d="M1005.239893 321.6832c-12.09344-12.83328-28.16-16.653227-45.226667-16.653227L106.67648 305.029973c-17.099947 0-33.21344-9.496747-45.243307-22.293333-12.123307-12.86656-18.740053-32.35328-18.740053-50.4832 0-18.153387 6.616747-33.58336 18.70336-46.41664 12.06656-12.83328 28.180053-16.653227 45.28-16.653227l170.673493 0c11.77344 0 21.326507-10.143147 21.326507-22.629973 0-12.493227-9.553493-22.666667-21.326507-22.666667L106.67648 123.886933c-28.489813 0-55.286613 9.353387-75.466667 30.760107C11.086507 176.009813 0.003413 202.050133 0.003413 232.25344c0 1.640107 0.366507 3.209813 0.43648 4.84992L0.003413 237.10336l0 650.103467c0 30.280107 11.08352 61.92 31.206827 83.286613 20.180053 21.399893 46.976853 36.38656 75.466667 36.38656l853.336747 0c17.066667 0 33.173333-10.30016 45.226667-23.13344S1024 950.640213 1024 932.466773L1024 366.46016C1024 348.30336 1017.360213 334.480213 1005.239893 321.6832zM981.34656 932.50688c0 6.033493-2.226773 14.94656-6.280107 19.213227-4.040107 4.299947-9.399893 9.85984-15.053227 9.85984L106.67648 961.579947c-17.099947 0-33.21344-10.260053-45.28-23.113387-12.086613-12.8-18.70336-33.099947-18.70336-51.26016L42.69312 324.279893c18.429867 15.556693 40.503467 26.039893 63.98336 26.039893l853.336747 0c5.653333 0 11.013547-0.886613 15.053227 3.380053 4.013227 4.266667 6.280107 6.726827 6.280107 12.759893L981.34656 932.50688zM849.040213 169.14688l4.266667 0c5.719893 0 11.06688-0.8832 15.093333 3.42016 4.02688 4.293547 6.253227 6.716587 6.253227 12.759893l0 33.79328c0 12.486827 9.546667 22.65984 21.360213 22.65984 11.77344 0 21.30688-10.136747 21.30688-22.65984l0-33.79328c0-18.1568-6.62656-31.98336-18.733227-44.779947-12.106667-12.829867-28.18688-16.660053-45.28-16.660053l-4.266667 0c-11.813547 0-21.333333 10.143147-21.333333 22.666667S837.226667 169.14688 849.040213 169.14688zM308.136533 273.21344l320.090027-208.439893c5.320107-2.7968 11.333547-3.10656 16.880213-0.956587 5.573547 2.186667 9.906773 6.62656 12.18688 12.423253l100.86656 185.64352 39.306667-17.579947-100.853333-185.673387c-6.81344-17.16992-20.200107-30.749867-36.693333-37.266773-16.50688-6.52672-35.013547-5.469867-50.74688 2.823253L289.143467 232.599893 308.136533 273.21344zM844.773547 798.580053 640 798.580053c-14.14656 0-25.6 11.666773-25.6 26.066773 0 14.36672 11.45344 26.053547 25.6 26.053547l204.773547 0c14.14656 0 25.613227-11.686827 25.613227-26.053547C870.386773 810.213547 858.920107 798.580053 844.773547 798.580053z" p-id="9727"></path></svg>